<svg id="Layer_1" data-name="Layer 1" xmlns="http://www.w3.org/2000/svg" viewBox="0 0 571.16 310.12"><defs><style>.cls-1{fill:#73a08c;}</style></defs><path class="cls-1" d="M72.05,209.26q-23.28,0-36.34-19l7.81-8.66q6.66,9.51,13.69,13.34a32.2,32.2,0,0,0,15.69,3.83,30.59,30.59,0,0,0,11.71-2.12,19.8,19.8,0,0,0,8.16-5.89,13.7,13.7,0,0,0,3-8.73A13.42,13.42,0,0,0,89,169.8q-6.75-4.11-18.81-7-14.48-3.4-22.07-9.87t-7.59-18.52a23.43,23.43,0,0,1,4.33-13.91,29.9,29.9,0,0,1,11.71-9.65,37.86,37.86,0,0,1,16.6-3.55q11.5,0,19.44,4.69A37.85,37.85,0,0,1,105.68,125l-8,8a36.11,36.11,0,0,0-10.64-11.07,25.42,25.42,0,0,0-14.19-4q-9.24,0-15.12,4.61a14.37,14.37,0,0,0-5.89,11.85,13,13,0,0,0,5.4,11.07q5.39,4,17.74,6.67,14.76,3.41,23.41,9.94t8.66,17.88a27.24,27.24,0,0,1-4.4,15.33,29.11,29.11,0,0,1-12.27,10.36A42.92,42.92,0,0,1,72.05,209.26Z"/><path class="cls-1" d="M214.47,117.71a8.45,8.45,0,0,1-6.11-2,8.76,8.76,0,0,1,0-11.43,9.74,9.74,0,0,1,12.07-.07,8.73,8.73,0,0,1,0,11.43A8.1,8.1,0,0,1,214.47,117.71Zm-5.39,90.13V133.61H220v74.23Z"/><path class="cls-1" d="M37.1,223.56H252.37v9.75H37.1Z"/><path class="cls-1" d="M321.65,223.56H527.32v9.75H321.65Z"/><path class="cls-1" d="M403.15,209.26a53.52,53.52,0,0,1-20.37-3.84,50.15,50.15,0,0,1-16.46-10.71,49.13,49.13,0,0,1-10.93-16.11,54.49,54.49,0,0,1-.07-40.31,48.86,48.86,0,0,1,10.79-16.11,49.82,49.82,0,0,1,16.25-10.71,52,52,0,0,1,20.08-3.83,50.42,50.42,0,0,1,14.76,2.2,53.74,53.74,0,0,1,13.2,6,35.24,35.24,0,0,1,9.65,8.73l-7.38,7.66a44.1,44.1,0,0,0-14.05-9.86,38.91,38.91,0,0,0-16-3.62,39.39,39.39,0,0,0-20.15,5.18A38.11,38.11,0,0,0,368.31,138a39.69,39.69,0,0,0-5.18,20.3,38.83,38.83,0,0,0,5.39,20.36,39.59,39.59,0,0,0,14.55,14.27,40.45,40.45,0,0,0,20.51,5.25,36.88,36.88,0,0,0,16.18-3.48,29.49,29.49,0,0,0,11.49-9.44,22.39,22.39,0,0,0,4.26-13.34v-2H403V158.73h43.71c.1,1.23.21,2.63.36,4.19s.21,3,.21,4.33A40.24,40.24,0,0,1,441.4,189a41.64,41.64,0,0,1-15.9,14.83A46.29,46.29,0,0,1,403.15,209.26Z"/><path class="cls-1" d="M296.85,78.47s-1.1-2.18-.11-3.91,3.45-3,4.22-3.75A14.64,14.64,0,0,0,302.23,69c.09,0,1.1,3.68.33,5.73a6.46,6.46,0,0,1-5,4.17Z"/><path class="cls-1" d="M341.32,99a4.5,4.5,0,0,1,2.55-2.77c1.91-.55,4.4.23,5.41.24a15,15,0,0,0,2.1-.4c.06.06-1.71,3.27-3.61,4.16a6.65,6.65,0,0,1-6.58-.76Z"/><path class="cls-1" d="M332.37,118.8s1.39-2.54,3.76-2.75,5.29,1.33,6.52,1.58a18.85,18.85,0,0,0,2.65,0c.06.08-2.86,3.56-5.38,4.19a7.65,7.65,0,0,1-7.48-2.08Z"/><path class="cls-1" d="M336.71,64.86A4.26,4.26,0,0,1,339.78,63c1.9,0,4,1.38,4.89,1.66a14.08,14.08,0,0,0,2,.19c0,.07-2.43,2.54-4.41,2.85a5.9,5.9,0,0,1-5.59-2.11Z"/><path class="cls-1" d="M327.62,77.27s2-1.72,4.07-1.14,4.06,2.82,5,3.43a17.78,17.78,0,0,0,2.25.86c0,.09-3.57,2.11-5.91,1.83a6.92,6.92,0,0,1-5.67-4.15Z"/><path class="cls-1" d="M306.1,90.46s-1.56-2-.92-4,2.89-3.78,3.51-4.68a17,17,0,0,0,.92-2.12c.09,0,1.88,3.51,1.51,5.75a6.68,6.68,0,0,1-4.23,5.28Z"/><path class="cls-1" d="M334.71,112.27a3.9,3.9,0,0,1-2.8-1.75c-.79-1.55-.52-3.83-.68-4.71a12.62,12.62,0,0,0-.69-1.74c0-.07,3.1.94,4.18,2.43a5.44,5.44,0,0,1,.6,5.47Z"/><path class="cls-1" d="M340.82,101.13a3.21,3.21,0,0,1-2.63-.57c-1-1-1.46-2.81-1.82-3.44s-1-1.07-1-1.16a7.34,7.34,0,0,1,3.89.73,4.43,4.43,0,0,1,2,4Z"/><path class="cls-1" d="M309.37,96.84s-1.85-2.29-4.26-2.07-5.06,2.3-6.24,2.77a18.64,18.64,0,0,1-2.65.5c-.05.09,3.51,3,6.15,3.22a7.82,7.82,0,0,0,7.11-3.44Z"/><path class="cls-1" d="M299,82.06s-.71,2.34-2.64,2.91-4.6-.2-5.65-.2a17.48,17.48,0,0,0-2.2.43c-.06-.06,1.76-3.43,3.74-4.37a6.45,6.45,0,0,1,6.53.45Z"/><path class="cls-1" d="M241.71,80.3s-.83-3,.82-4.89,5-2.92,6.15-3.64,1.86-2,2-2,.47,4.85-1,7.2a8.14,8.14,0,0,1-7.24,4Z"/><path class="cls-1" d="M245.61,92.49s-1.59-2.62-4.1-2.71-5.51,1.67-6.79,2a20.94,20.94,0,0,1-2.79.16c-.06.09,3.19,3.61,5.89,4.14a8.06,8.06,0,0,0,7.76-2.57Z"/><path class="cls-1" d="M253,94a17.1,17.1,0,0,1-6.21-5.88c-2.68-4.22-5.45-11.85-6.58-16s-2.13-10.07-2.67-10-.85,2.66-.3,6.69A87.3,87.3,0,0,0,241,84.35a46.74,46.74,0,0,0,5.83,11.19,12.18,12.18,0,0,0,6.22,4.1Z"/><path class="cls-1" d="M295.4,163.63s7.75-23.69,15.93-41.87c6.62-14.69,6.48-21.26,4.25-39.21-1.46-11.78-5.56-26.64-6.79-32.33-1.14-5.26-.84-7.78,1.83-2.28a194.8,194.8,0,0,1,9.8,25.66c3.35,11.32,5.44,24.51,4.32,35.5s-5.84,18.64-10.18,32.46c-3.68,11.72-6.14,28.08-6.14,28.08Z"/><path class="cls-1" d="M279.19,163.63s-7.74-23.69-15.93-41.87c-6.62-14.69-6.48-21.26-4.25-39.21,1.46-11.78,5.56-26.64,6.79-32.33,1.14-5.26.85-7.78-1.83-2.28a195.06,195.06,0,0,0-9.79,25.66c-3.36,11.32-5.45,24.51-4.33,35.5s5.85,18.64,10.18,32.46c3.68,11.72,6.15,28.08,6.15,28.08Z"/><path class="cls-1" d="M336.26,158c-1.38-6.3-5.44-6.69-10.11-4.42a39.35,39.35,0,0,0-12,9.11c-2.76,3.23-1.15,4.64-6.84,3.29s-5.72-6-9.79-6.2c-2.81-.11-5.29,0-6.56.08a9.69,9.69,0,0,0-1.5.22,9.06,9.06,0,0,1-4.39,0,9.52,9.52,0,0,0-1.5-.22c-1.27-.08-3.75-.19-6.56-.08-4.07.16-4.09,4.85-9.78,6.2s-4.09-.06-6.85-3.29a39.23,39.23,0,0,0-12-9.11c-4.67-2.27-8.73-1.88-10.11,4.42s2.64,15.29,8.1,19.31,9.14.3,9,3c0,.52-.29,3.72-.48,4.78-.34,1.89.24,4.94,1.94,6.25.47.37,4,3.09,5.12,10.87s7,21.61,9.16,25.55,2.19,6.39,1,11.13,1.46,10.67,2.56,13.75.55,11.6,4.92,12.54a6.37,6.37,0,0,0,4.62-.89,6.2,6.2,0,0,1,6.26,0,6.41,6.41,0,0,0,4.63.89c4.37-.94,3.81-9.45,4.91-12.54s3.79-9,2.57-13.75-1.16-7.2,1-11.13,8.08-17.78,9.16-25.55,4.44-10.5,4.91-10.87c1.7-1.31,2.28-4.36,1.94-6.25-.22-1.22-.47-4.49-.48-4.78-.11-2.68,3.55,1,9-3S337.65,164.29,336.26,158Z"/><path class="cls-1" d="M279,113.67s1-2.31,3-2.68,4.67.71,5.76.83a18.1,18.1,0,0,0,2.28-.2c.06.06-2.17,3.3-4.3,4a7.13,7.13,0,0,1-6.94-1.51Z"/><path class="cls-1" d="M279,100.76a4.12,4.12,0,0,1,1.56-3.12c1.56-1,4-.92,4.88-1.18a15.09,15.09,0,0,0,1.77-.89c.06,0-.69,3.35-2.15,4.63a6.17,6.17,0,0,1-6.06,1Z"/><path class="cls-1" d="M278.44,104a4.19,4.19,0,0,1-3.41-1c-1.27-1.37-1.67-3.79-2.1-4.65s-1.27-1.48-1.23-1.6,3.48.05,5,1.27a5.83,5.83,0,0,1,2.25,5.46Z"/><path class="cls-1" d="M257.18,94.14A4.06,4.06,0,0,1,259,91.23c1.62-.81,4-.53,4.9-.69a15.59,15.59,0,0,0,1.81-.71c.07,0-1,3.21-2.54,4.33a5.6,5.6,0,0,1-5.67.61Z"/><path class="cls-1" d="M267.71,71.63s2.27-1.76,4.5-1,4.29,3.3,5.31,4a20,20,0,0,0,2.4,1.06c0,.1-4,2.11-6.55,1.68a7.6,7.6,0,0,1-6-4.84Z"/><path class="cls-1" d="M273.06,122.68a4.46,4.46,0,0,0-1.25-3.54c-1.54-1.26-4.13-1.51-5.07-1.9a15.67,15.67,0,0,1-1.77-1.19c-.08,0,.29,3.67,1.69,5.23a6.16,6.16,0,0,0,5.92,2Z"/><path class="cls-1" d="M312.68,62.54A4.44,4.44,0,0,0,310,59.91c-1.93-.46-4.38.44-5.39.49a13.62,13.62,0,0,1-2.11-.3c-.06.06,1.86,3.18,3.8,4a6.17,6.17,0,0,0,6.2-.78Z"/><path class="cls-1" d="M259.08,74.31a32.32,32.32,0,0,0,6.64-3.93c3.57-2.76,5.53-4.36,7.4-7.72s2.71-5.52,3.12-5.51-.74,4.4-1.69,6.6a26.18,26.18,0,0,1-6.26,8.54c-2.61,2.12-8,5.86-9.71,5.86S259.08,74.31,259.08,74.31Z"/><path class="cls-1" d="M261,131.45a67,67,0,0,0,7-4.51c1.14-1,5.64-4.83,7.33-9.83a94.87,94.87,0,0,0,3.43-14.39c.58-3.61,1-5.62,1.3-1.45.37,4.8.6,9.12-.53,13.87-1.21,5-1.58,6.53-5,11.4-3,4.32-9.67,9-9.67,9Z"/><path class="cls-1" d="M150.4,208.88a31.68,31.68,0,0,1-17.24-4.66,30.45,30.45,0,0,1-11.44-13.3,47.62,47.62,0,0,1-4-20.32,47.37,47.37,0,0,1,4.11-20.4,32.38,32.38,0,0,1,11.52-13.6,30.39,30.39,0,0,1,17.09-4.88q10.13,0,17.17,5a24.81,24.81,0,0,1,9.53,14.34l-1.76,1.18V133.5l11.74.08v74.35l-11.74-.09V188.63l1.76.89a24.79,24.79,0,0,1-9.53,14.33Q160.52,208.88,150.4,208.88Zm2.35-9.9q10.84,0,16.72-7.47t5.87-21.21q0-13.74-5.94-21.14t-16.65-7.39q-10.86,0-16.95,7.61t-6.08,21.22q0,13.59,6.08,21T152.75,199Z"/><path class="cls-1" d="M490.65,208.88a31.65,31.65,0,0,1-17.24-4.66A30.45,30.45,0,0,1,462,190.92a47.62,47.62,0,0,1-4-20.32A47.37,47.37,0,0,1,462,150.2a32.38,32.38,0,0,1,11.52-13.6,30.35,30.35,0,0,1,17.09-4.88q10.13,0,17.16,5a24.83,24.83,0,0,1,9.54,14.34l-1.76,1.18V133.5l11.73.08v74.35l-11.73-.09V188.63l1.76.89a24.8,24.8,0,0,1-9.54,14.33Q500.78,208.88,490.65,208.88ZM493,199q10.85,0,16.72-7.47t5.87-21.21q0-13.74-5.94-21.14T493,141.77q-10.86,0-16.95,7.61T470,170.6q0,13.59,6.09,21T493,199Z"/><path class="cls-1" d="M320.46,108.17s-8.08-5.69-10.8-9.35-9.86-14.18-11.35-17.17-2.17-4.37-1.63-4.71,6.55,8.88,10.54,13.85,11.17,11.07,13.24,11.72S320.46,108.17,320.46,108.17Z"/><path class="cls-1" d="M320.06,122.54s6-1.91,9-4.74,7.18-7.59,9.11-11.37,3.39-8.85,3.87-8.7-1.69,10.25-5.39,16c-7.09,11.1-13.07,12.85-17.51,13.82S320.06,122.54,320.06,122.54Z"/><path class="cls-1" d="M320.11,76.77s8.29-4.54,11.05-7.49a33.43,33.43,0,0,0,6.64-11.63c1-3.31,1.82-7,2.24-7s.28,6.42-1.3,11.26a30.08,30.08,0,0,1-7.5,12.87c-4.22,4.6-11.13,7.91-11.13,7.91Z"/><path class="cls-1" d="M313.66,56.94a4,4,0,0,1,1.28-3.09c1.43-1,3.75-1.15,4.6-1.46a14.87,14.87,0,0,0,1.63-1c.07,0-.43,3.25-1.75,4.58a5.48,5.48,0,0,1-5.36,1.5Z"/><path class="cls-1" d="M339.55,51.68a3.89,3.89,0,0,1,2-2.57c1.63-.61,3.84-.09,4.73-.15a13.33,13.33,0,0,0,1.8-.48c.06.05-1.28,3-2.87,3.85a5.8,5.8,0,0,1-5.78-.23Z"/><path class="cls-1" d="M333.67,67.54s-1.68,1.71-3.61,1.34-3.91-2.25-4.83-2.72a14.25,14.25,0,0,0-2.1-.61c0-.08,3.08-2.19,5.22-2.12a6.31,6.31,0,0,1,5.47,3.34Z"/><path class="cls-1" d="M339.34,53.5A3.3,3.3,0,0,0,338.17,51c-1.23-.84-3.18-.86-3.9-1.08a13.1,13.1,0,0,1-1.4-.77,7.71,7.71,0,0,0,1.61,3.78A4.6,4.6,0,0,0,339,54Z"/><path class="cls-1" d="M237.69,69.29s-2.12,1.72-4.25,1-4.12-3.06-5.1-3.72a17.84,17.84,0,0,0-2.3-1c0-.09,3.77-2.07,6.19-1.71a7.2,7.2,0,0,1,5.74,4.5Z"/><path class="cls-1" d="M261.3,55.5a3.64,3.64,0,0,1-3.08-.14c-1.35-.91-2.16-2.88-2.69-3.52s-1.36-1-1.36-1.11,3-.64,4.51.08a5.07,5.07,0,0,1,3,4.17Z"/><path class="cls-1" d="M275,61.16a3.75,3.75,0,0,1,2.54-1.92c1.68-.17,3.63.86,4.48,1a12.52,12.52,0,0,0,1.81,0c0,.06-1.92,2.47-3.64,2.92A5.24,5.24,0,0,1,275,61.81Z"/><path class="cls-1" d="M237.19,64.28a4.5,4.5,0,0,1,.83-3.7c1.38-1.44,3.94-2,4.83-2.52s1.5-1.44,1.63-1.41.16,3.71-1,5.45a6.22,6.22,0,0,1-5.68,2.72Z"/><path class="cls-1" d="M275.89,58.41a3.26,3.26,0,0,1-2.64-.78c-1-1.08-1.27-3-1.59-3.64s-1-1.16-.94-1.26a7.68,7.68,0,0,1,3.9,1A4.51,4.51,0,0,1,276.31,58Z"/></svg>